<svg width="1200" height="900" viewBox="0 0 1200 900" xmlns="http://www.w3.org/2000/svg" role="img" aria-labelledby="title desc">
  <title id="title">Serenity Vision Theme Preview</title>
  <desc id="desc">Mocked layout preview for the Serenity Vision WordPress theme featuring hero, cards, and CTA.</desc>
  <defs>
    <linearGradient id="bg" x1="0%" y1="0%" x2="100%" y2="100%">
      <stop offset="0%" stop-color="#050C1A" />
      <stop offset="100%" stop-color="#111C38" />
    </linearGradient>
    <linearGradient id="hero" x1="0%" y1="0%" x2="100%" y2="100%">
      <stop offset="0%" stop-color="#5A5EF3" />
      <stop offset="100%" stop-color="#3BD6C6" />
    </linearGradient>
    <linearGradient id="card" x1="0%" y1="0%" x2="100%" y2="100%">
      <stop offset="0%" stop-color="rgba(255,255,255,0.16)" />
      <stop offset="100%" stop-color="rgba(255,255,255,0.05)" />
    </linearGradient>
  </defs>
  <rect width="1200" height="900" fill="url(#bg)" rx="48" />
  <rect x="80" y="60" width="1040" height="780" rx="40" fill="rgba(15,23,42,0.65)" stroke="rgba(148,163,184,0.2)" stroke-width="2" />
  <rect x="80" y="120" width="1040" height="140" fill="rgba(15,23,42,0.85)" rx="30" />
  <circle cx="140" cy="190" r="34" fill="#5A5EF3" />
  <rect x="200" y="160" width="200" height="24" rx="12" fill="#E2E8F0" />
  <rect x="200" y="196" width="280" height="16" rx="8" fill="#94A3B8" />
  <rect x="520" y="172" width="120" height="16" rx="8" fill="#94A3B8" />
  <rect x="660" y="172" width="100" height="16" rx="8" fill="#94A3B8" />
  <rect x="780" y="172" width="120" height="16" rx="8" fill="#94A3B8" />
  <rect x="910" y="166" width="160" height="32" rx="16" fill="url(#hero)" />
  <rect x="120" y="300" width="460" height="220" rx="32" fill="rgba(15,23,42,0.85)" stroke="rgba(148,163,184,0.18)" />
  <rect x="160" y="340" width="380" height="28" rx="14" fill="#E2E8F0" />
  <rect x="160" y="380" width="360" height="16" rx="8" fill="#94A3B8" />
  <rect x="160" y="408" width="340" height="16" rx="8" fill="#94A3B8" />
  <rect x="160" y="436" width="220" height="16" rx="8" fill="#94A3B8" />
  <rect x="160" y="472" width="160" height="34" rx="18" fill="url(#hero)" />
  <rect x="620" y="300" width="460" height="220" rx="32" fill="rgba(90,94,243,0.25)" />
  <rect x="660" y="340" width="380" height="28" rx="14" fill="#E2E8F0" opacity="0.9" />
  <rect x="660" y="380" width="360" height="16" rx="8" fill="#94A3B8" opacity="0.9" />
  <rect x="660" y="408" width="280" height="16" rx="8" fill="#94A3B8" opacity="0.6" />
  <rect x="660" y="436" width="320" height="16" rx="8" fill="#94A3B8" opacity="0.45" />
  <g transform="translate(120 560)">
    <rect width="300" height="180" rx="28" fill="rgba(15,23,42,0.7)" stroke="rgba(148,163,184,0.16)" />
    <rect x="28" y="28" width="180" height="18" rx="9" fill="#E2E8F0" />
    <rect x="28" y="58" width="220" height="14" rx="7" fill="#94A3B8" />
    <rect x="28" y="82" width="200" height="14" rx="7" fill="#94A3B8" />
  </g>
  <g transform="translate(440 560)">
    <rect width="300" height="180" rx="28" fill="rgba(15,23,42,0.7)" stroke="rgba(148,163,184,0.16)" />
    <rect x="28" y="28" width="180" height="18" rx="9" fill="#E2E8F0" />
    <rect x="28" y="58" width="220" height="14" rx="7" fill="#94A3B8" />
    <rect x="28" y="82" width="200" height="14" rx="7" fill="#94A3B8" />
  </g>
  <g transform="translate(760 560)">
    <rect width="300" height="180" rx="28" fill="rgba(15,23,42,0.7)" stroke="rgba(148,163,184,0.16)" />
    <rect x="28" y="28" width="180" height="18" rx="9" fill="#E2E8F0" />
    <rect x="28" y="58" width="220" height="14" rx="7" fill="#94A3B8" />
    <rect x="28" y="82" width="200" height="14" rx="7" fill="#94A3B8" />
  </g>
  <rect x="340" y="770" width="520" height="60" rx="30" fill="url(#hero)" opacity="0.85" />
  <rect x="360" y="788" width="260" height="20" rx="10" fill="#ffffff" opacity="0.85" />
  <rect x="640" y="788" width="180" height="20" rx="10" fill="#ffffff" opacity="0.45" />
</svg>
