<svg xmlns="http://www.w3.org/2000/svg" viewBox="0 0 1600 1200" role="img" aria-labelledby="title desc">
  <title id="title">Lumina Showcase theme preview</title>
  <desc id="desc">Stylized mockup of the Lumina Showcase WordPress theme featuring gradient hero, feature cards, and testimonials.</desc>
  <defs>
    <linearGradient id="heroGradient" x1="0" y1="0" x2="1" y2="1">
      <stop offset="0%" stop-color="#8a5cf6" />
      <stop offset="60%" stop-color="#4ab0ff" />
      <stop offset="100%" stop-color="#38d6c8" />
    </linearGradient>
    <linearGradient id="ctaGradient" x1="0" y1="0" x2="1" y2="0">
      <stop offset="0%" stop-color="#1a73e8" />
      <stop offset="100%" stop-color="#8a5cf6" />
    </linearGradient>
    <filter id="shadow" x="-10%" y="-10%" width="120%" height="120%">
      <feDropShadow dx="0" dy="18" stdDeviation="22" flood-color="#1b2330" flood-opacity="0.18" />
    </filter>
  </defs>
  <rect width="1600" height="1200" fill="#f6f7fb" />
  <rect x="160" y="160" width="1280" height="880" rx="48" fill="#ffffff" filter="url(#shadow)" />
  <rect x="160" y="160" width="1280" height="120" rx="48" fill="#ffffff" />
  <rect x="200" y="200" width="220" height="40" rx="20" fill="#1b2330" />
  <circle cx="230" cy="220" r="10" fill="#8a5cf6" />
  <g fill="#7b859c" font-family="Poppins, 'Segoe UI', sans-serif" font-size="26" font-weight="600">
    <text x="440" y="230">Home</text>
    <text x="590" y="230">Services</text>
    <text x="790" y="230">Work</text>
    <text x="940" y="230">About</text>
    <text x="1100" y="230">Contact</text>
  </g>
  <rect x="200" y="320" width="1200" height="280" rx="38" fill="url(#heroGradient)" />
  <g fill="#ffffff" font-family="Poppins, 'Segoe UI', sans-serif">
    <text x="260" y="390" font-size="26" letter-spacing="14" opacity="0.78">CREATIVE EXPERIENCE STUDIO</text>
    <text x="260" y="460" font-size="62" font-weight="700">We craft immersive brands</text>
    <text x="260" y="520" font-size="62" font-weight="700">that illuminate your story</text>
    <text x="260" y="580" font-size="28" opacity="0.86">Design-forward storytelling for agencies, makers, and visionaries.</text>
  </g>
  <rect x="260" y="610" width="220" height="64" rx="32" fill="#ffffff" opacity="0.92" />
  <text x="292" y="652" font-family="Poppins, 'Segoe UI', sans-serif" font-size="26" font-weight="600" fill="#1a73e8">Explore Services</text>
  <g>
    <rect x="220" y="720" width="280" height="220" rx="30" fill="#ffffff" filter="url(#shadow)" />
    <rect x="540" y="720" width="280" height="220" rx="30" fill="#ffffff" filter="url(#shadow)" />
    <rect x="860" y="720" width="280" height="220" rx="30" fill="#ffffff" filter="url(#shadow)" />
    <rect x="1180" y="720" width="280" height="220" rx="30" fill="#ffffff" filter="url(#shadow)" />
  </g>
  <g font-family="Poppins, 'Segoe UI', sans-serif" fill="#1b2330" font-weight="600" font-size="32">
    <text x="260" y="800">Brand Acceleration</text>
    <text x="580" y="800">Experience Design</text>
    <text x="900" y="800">Launch Marketing</text>
    <text x="1210" y="800">Partnerships</text>
  </g>
  <g font-family="Poppins, 'Segoe UI', sans-serif" fill="#5c677d" font-size="22">
    <text x="260" y="842">Purpose-led systems that</text>
    <text x="260" y="872">cut through the noise.</text>
    <text x="580" y="842">Responsive products infused</text>
    <text x="580" y="872">with motion and craft.</text>
    <text x="900" y="842">Campaigns that turn first</text>
    <text x="900" y="872">impressions into loyalty.</text>
    <text x="1210" y="842">Partner experiences that</text>
    <text x="1210" y="872">scale with your story.</text>
  </g>
  <rect x="280" y="980" width="1040" height="160" rx="36" fill="url(#ctaGradient)" />
  <text x="340" y="1050" font-family="Poppins, 'Segoe UI', sans-serif" font-size="46" font-weight="700" fill="#ffffff">Let’s illuminate your next project</text>
  <text x="340" y="1100" font-family="Poppins, 'Segoe UI', sans-serif" font-size="26" fill="#ffffff" opacity="0.85">Collaborate with strategists, designers, and technologists.</text>
</svg>
